<?xml version="1.0" standalone="no"?>
<!DOCTYPE svg PUBLIC "-//W3C//DTD SVG 20010904//EN"
 "http://www.w3.org/TR/2001/REC-SVG-20010904/DTD/svg10.dtd">
<svg version="1.0" xmlns="http://www.w3.org/2000/svg"
 width="2000.000000pt" height="997.000000pt" viewBox="0 0 2000.000000 997.000000"
 preserveAspectRatio="xMidYMid meet">

<g transform="translate(0.000000,997.000000) scale(0.100000,-0.100000)"
fill="#000000" stroke="none">
<path d="M3306 5898 c-20 -19 -213 -341 -460 -765 -467 -802 -453 -772 -397
-835 25 -28 36 -33 75 -33 37 0 51 5 75 30 28 28 861 1446 881 1499 14 39 -6
94 -43 116 -49 30 -91 26 -131 -12z"/>
<path d="M4795 5921 c-11 -5 -27 -17 -36 -27 -38 -45 -871 -1488 -875 -1517
-7 -47 25 -93 75 -108 34 -10 44 -9 78 7 35 18 68 71 476 769 410 703 437 752
433 789 -6 51 -41 86 -92 92 -21 2 -48 0 -59 -5z"/>
<path d="M5504 5911 c-44 -27 -60 -71 -45 -122 19 -63 45 -73 188 -78 l123 -3
0 -613 0 -613 -122 -4 c-142 -4 -171 -16 -189 -79 -15 -49 2 -94 45 -120 29
-18 56 -19 376 -19 324 0 347 1 377 20 55 33 64 116 17 164 -31 30 -62 36
-185 36 l-99 0 0 679 c0 417 -4 690 -10 705 -5 14 -24 35 -42 46 -30 18 -51
20 -218 20 -163 0 -189 -2 -216 -19z"/>
<path d="M11374 5920 c-60 -24 -83 -113 -44 -163 28 -36 76 -47 198 -47 l102
0 0 -615 0 -615 -102 0 c-57 0 -120 -5 -140 -10 -79 -22 -104 -111 -49 -172
l29 -33 367 0 367 0 29 33 c34 38 39 93 13 131 -27 38 -74 51 -189 51 l-105 0
-1 673 c0 493 -3 681 -12 707 -21 61 -54 70 -262 69 -99 0 -190 -4 -201 -9z"/>
<path d="M1335 5646 c-45 -20 -58 -51 -63 -148 -6 -122 4 -175 38 -210 l28
-28 141 0 c77 0 151 4 165 10 44 16 56 57 56 185 0 186 -20 205 -217 205 -76
-1 -129 -6 -148 -14z"/>
<path d="M7157 5470 c-58 -15 -106 -43 -194 -114 -68 -55 -87 -77 -115 -133
l-33 -68 0 -290 0 -290 34 -63 c39 -73 152 -176 241 -220 54 -27 57 -27 255
-27 236 0 241 1 377 114 73 60 92 82 120 138 l33 68 0 285 0 285 -27 55 c-14
30 -37 67 -50 82 -39 46 -150 129 -208 157 -52 24 -65 26 -225 28 -93 1 -187
-2 -208 -7z m404 -260 c103 -81 99 -67 99 -349 l0 -245 -52 -49 c-92 -87 -92
-87 -269 -87 l-155 0 -71 59 c-39 33 -73 67 -77 76 -3 9 -6 127 -6 262 l0 246
41 40 c23 21 60 52 82 68 40 29 40 29 192 29 l152 0 64 -50z"/>
<path d="M8715 5466 c-76 -19 -99 -34 -242 -160 -110 -96 -136 -125 -162 -177
l-31 -62 0 -196 c0 -195 0 -196 29 -256 30 -62 61 -95 219 -234 137 -119 154
-123 491 -119 l263 3 29 33 c34 38 39 93 13 131 -33 46 -65 51 -328 51 l-244
0 -34 27 c-105 87 -205 178 -215 196 -8 15 -12 72 -13 167 0 117 3 150 16 168
8 12 68 67 131 122 l116 100 244 0 c262 0 294 5 327 51 21 30 21 88 0 118 -33
46 -66 51 -321 50 -152 0 -256 -5 -288 -13z"/>
<path d="M10035 5473 c-11 -3 -32 -17 -47 -31 -22 -20 -28 -35 -28 -70 0 -104
22 -112 300 -112 292 0 292 0 304 -165 l6 -80 -302 0 -303 0 -55 -31 c-71 -40
-135 -118 -156 -190 -24 -83 -16 -281 13 -346 27 -60 101 -133 161 -161 44
-21 62 -22 272 -22 l225 0 80 49 c47 30 80 45 83 38 22 -68 92 -107 151 -83
52 22 66 55 64 151 -4 210 -24 729 -28 765 -15 117 -81 212 -183 262 l-57 28
-240 2 c-132 1 -249 -1 -260 -4z m479 -677 c51 -21 66 -50 66 -126 l0 -65
-114 -62 -113 -63 -167 0 -168 0 -29 29 c-28 29 -29 32 -29 129 0 86 3 103 21
126 12 15 31 32 43 36 11 5 119 9 239 9 165 1 226 -2 251 -13z"/>
<path d="M1333 4920 c-47 -19 -58 -55 -58 -185 0 -193 13 -205 221 -205 l136
0 34 34 34 34 0 132 0 132 -34 34 -34 34 -138 -1 c-77 0 -149 -4 -161 -9z"/>
</g>
</svg>
